<svg xmlns="http://www.w3.org/2000/svg" viewBox="0 0 987.98 188.09"><defs><style>.cls-1{fill:#001219;}</style></defs><g id="Layer_2" data-name="Layer 2"><g id="Layer_1-2" data-name="Layer 1"><path class="cls-1" d="M130.85,35.89Q125.39,24.1,112.29,17.1t-36.14-7q-3.39,0-10.66.13l-15.28.26q-8,.12-13.58.12-7.29,0-16.62-.26T0,9.85a75.72,75.72,0,0,0,.49,8.94,33.75,33.75,0,0,0,1.45,6.86Q8.49,26.43,12,28.5t4.73,7.39Q18,41.2,18,51.3v93.52a71.54,71.54,0,0,1-1.33,15.67q-1.34,5.58-5,7.65T1.46,170.73a44.61,44.61,0,0,0-1.1,6.6c-.23,2.51-.36,5.57-.36,9.2,3.07-.17,6.92-.3,11.53-.39l14.79-.26q7.88-.12,14.67-.12,7.27,0,14.67.12l13.83.26q6.42.13,10.55.39c0-2.93-.09-5.78-.25-8.55a23.36,23.36,0,0,0-1.45-7.25q-9-.78-14.18-3.5a15.73,15.73,0,0,1-7.53-8.94q-2.31-6.21-2.3-17.35V27.82a35.43,35.43,0,0,1,4.73-1.13,39,39,0,0,1,6.18-.52q17.48,0,25.47,12.17t8,31.61q0,15-3.89,23.45T84.77,105.31a26.34,26.34,0,0,1-13.22,3.5,38.54,38.54,0,0,1-4.49-.26,34.05,34.05,0,0,1-4.48-.78A25.22,25.22,0,0,0,61,114.64a29.65,29.65,0,0,0,.36,7.91q6.56,2.83,16.74,2.84,19.16,0,32-8.54a54.76,54.76,0,0,0,19.53-22.8,73.76,73.76,0,0,0,6.67-31.61A62.57,62.57,0,0,0,130.85,35.89Z"/><path class="cls-1" d="M201.4,170.73q-9-.25-12.12-4.93t-3.16-17.61V13.74c0-4-.65-7-1.93-9.2A10.66,10.66,0,0,0,179.09,0a42.86,42.86,0,0,1-10.43,4A136.07,136.07,0,0,1,153,7.26a113.81,113.81,0,0,1-16.86,1.29,29.87,29.87,0,0,0-2.06,7.13,47.16,47.16,0,0,0-.6,7.64c5,.35,8.81,1.17,11.4,2.46a10.61,10.61,0,0,1,5.32,5.44,24.09,24.09,0,0,1,1.47,9.2V148.19q0,13-3.28,17.61t-13,4.93a34.08,34.08,0,0,0-1.33,7.12c-.24,2.69-.37,5.57-.37,8.68q3.41-.25,9-.39l12.37-.26c4.52-.08,9-.12,13.34-.12s8.73,0,13.1.12l12.24.26q5.7.13,9.09.39c0-2.76-.07-5.56-.23-8.41A31.1,31.1,0,0,0,201.4,170.73Z"/><path class="cls-1" d="M297.69,72.54q-13.47-7.77-33.34-7.77a65.44,65.44,0,0,0-31.17,7.39,53.69,53.69,0,0,0-22,21.5q-8,14.11-8,34.06,0,18.41,6.92,32a48.26,48.26,0,0,0,20.49,21q13.58,7.4,32.74,7.39,18.92,0,32.74-7.77a53.47,53.47,0,0,0,21.35-21.89q7.52-14.12,7.51-33,0-17.88-6.91-31.47A50.81,50.81,0,0,0,297.69,72.54Zm-14.07,87.7q-5.69,11.52-17.1,11.53a19.79,19.79,0,0,1-14.79-6.61q-6.31-6.61-9.58-18.4A100.38,100.38,0,0,1,238.88,120q0-16.83,5.57-28.11t17-11.27q7.53,0,13.82,5.7t10.2,17.1q3.87,11.41,3.87,28Q289.32,148.72,283.62,160.24Z"/><path class="cls-1" d="M395.27,168.53a26.69,26.69,0,0,1-7.88,1.16,10.83,10.83,0,0,1-7-2.33c-1.94-1.56-3.36-4.27-4.25-8.16A76.34,76.34,0,0,1,374.78,143V89.9a86.69,86.69,0,0,1,12.61-2.85,100.27,100.27,0,0,1,15-1,37.69,37.69,0,0,0,1.7-7.65,71.09,71.09,0,0,0,.49-8.68H374.78V40.94q0-8.55-1.22-11.4a8.53,8.53,0,0,0-4.6-4.4A53.21,53.21,0,0,1,356.1,33a62.63,62.63,0,0,1-15.76,4.79V69.69h-15A37.19,37.19,0,0,0,323,77.47a51.13,51.13,0,0,0-.6,8.29,71.09,71.09,0,0,1,9.94,1,42.74,42.74,0,0,1,8,2.33v58.29q0,22,8.49,31.35t25.22,9.33a59.4,59.4,0,0,0,18.31-2.85q8.85-2.87,13.7-7.26-.22-8-3.64-12.69A31.94,31.94,0,0,1,395.27,168.53Z"/><path class="cls-1" d="M701.22,65.38q-6.32,0-12-.26c-3.79-.17-7.24-.35-10.3-.52a55.2,55.2,0,0,0,.6,8.16,43.94,43.94,0,0,0,1.83,7.64,16.9,16.9,0,0,1,7.87,3.49q2.81,2.48,3.28,7.65t-2.18,14.51L679.6,143.8q-5.83-17-12.21-34.38-8.86-24.09-17.58-45.34-3.64,0-7.76.26a20.44,20.44,0,0,0-7,1.55L606.13,142.8q-2-9.09-4.34-17.71-4.14-14.9-8-27.33a53.43,53.43,0,0,1-2.18-10.23c-.16-2.34.48-4,1.94-5.06s4.12-1.72,8-2.07A34.8,34.8,0,0,0,603,73.14a76.33,76.33,0,0,0,.49-8.54q-7.51.25-16.25.52t-17.94.26q-8.26,0-15.41-.26l-14.43-.52a51.76,51.76,0,0,0,.73,8.54,54.78,54.78,0,0,0,1.7,7.52,15.16,15.16,0,0,1,8.25,4.41q3.14,3.36,5.82,10.61t6.18,17.88q3.51,10.62,7.76,22.93t8.25,25.13q4,12.82,7.64,24.74c2.1,0,4.4-.05,6.9-.13a65,65,0,0,0,7.28-.65,17.36,17.36,0,0,0,5.46-1.55l28.66-70.86q2.65,8.27,5.66,16.58,4.72,13.09,10.18,27.08t11.52,29.53c1.94,0,4.17-.05,6.67-.13a65,65,0,0,0,7.28-.65,20.52,20.52,0,0,0,5.7-1.55l24.5-79.27q2.91-8.81,5-13.74a20.46,20.46,0,0,1,4.61-7.25,15.24,15.24,0,0,1,6.67-3.37,33.6,33.6,0,0,0,1.82-7.51,61.51,61.51,0,0,0,.6-8.29c-3.23.17-6.71.35-10.42.52S705.91,65.38,701.22,65.38Z"/><path class="cls-1" d="M890.36,123.62q-7.77-5.31-21.58-11.27a157.26,157.26,0,0,1-17.35-8.68q-5.68-3.49-7.39-6.47a13,13,0,0,1-1.7-6.61,10.4,10.4,0,0,1,3.39-8,12.79,12.79,0,0,1,9-3.11A20.73,20.73,0,0,1,867,83,24.07,24.07,0,0,1,874.72,92a32.33,32.33,0,0,1,3.27,12.3,39.09,39.09,0,0,0,10.19-1.3,31.19,31.19,0,0,0,8.24-3.36,109.55,109.55,0,0,1-1.09-13.86q-.12-7.12.12-13.61a72.7,72.7,0,0,0-17-6.21,98.66,98.66,0,0,0-21.83-2.08A69.06,69.06,0,0,0,839.55,66,49.15,49.15,0,0,0,825,72.19a30.76,30.76,0,0,0-10.07,10.37,28.81,28.81,0,0,0-3.64,14.77q0,11.13,4.13,18.26a35,35,0,0,0,11.88,12,123,123,0,0,0,19.16,9.58,112.72,112.72,0,0,1,14.68,7.26c3.31,2.07,5.58,4.1,6.78,6.08a13.39,13.39,0,0,1,1.83,7.13,11.47,11.47,0,0,1-4.37,9.45q-4.36,3.51-11.64,3.5a20.88,20.88,0,0,1-16.37-7.25q-6.43-7.24-7.88-21.76a53.52,53.52,0,0,0-10.19,1,22.93,22.93,0,0,0-8.73,3.38c.32,2.75.52,6,.6,9.84s0,7.64-.11,11.52-.42,7.47-.74,10.75a94.55,94.55,0,0,0,18.92,6.74q9.71,2.33,24.74,2.34,15.51,0,26.92-4.28t17.58-12.57q6.19-8.28,6.19-19.94a32.77,32.77,0,0,0-3.27-15.16Q898.13,128.94,890.36,123.62Z"/><path class="cls-1" d="M984.34,163.56a31.07,31.07,0,0,1-7.15,3.24,26.36,26.36,0,0,1-7.88,1.16,10.88,10.88,0,0,1-7-2.32c-1.94-1.56-3.37-4.28-4.25-8.17a76.28,76.28,0,0,1-1.33-16.19V88.17a86.69,86.69,0,0,1,12.61-2.85,101.51,101.51,0,0,1,15-1,38.37,38.37,0,0,0,1.7-7.65,73,73,0,0,0,.49-8.67H956.7V39.21q0-8.55-1.22-11.4a8.53,8.53,0,0,0-4.6-4.4A52.9,52.9,0,0,1,938,31.31a62.58,62.58,0,0,1-15.77,4.79V68h-15a36.36,36.36,0,0,0-2.31,7.77,51.22,51.22,0,0,0-.6,8.29,69.63,69.63,0,0,1,9.94,1,42.4,42.4,0,0,1,8,2.32v58.3q0,22,8.5,31.34T956,186.36a59.4,59.4,0,0,0,18.31-2.85q8.85-2.85,13.7-7.26C987.82,170.91,986.61,166.67,984.34,163.56Z"/><path class="cls-1" d="M749.8,39.21q5.46,5.06,14.19,5,9.93,0,15.76-5.31a17,17,0,0,0,5.82-13.08q0-9.06-5.33-14.25T765,6.44a21.64,21.64,0,0,0-14.56,5.18q-6.06,5.19-6.06,14.5A17,17,0,0,0,749.8,39.21Z"/><path class="cls-1" d="M799.4,170.69q-8.73-.25-11.89-4.93t-3.15-17.61V78.46q0-6-1.94-9.2a10.63,10.63,0,0,0-5.09-4.53,43,43,0,0,1-10.55,4A137.86,137.86,0,0,1,751,72a110.87,110.87,0,0,1-16.61,1.3,22,22,0,0,0-2.18,7.12,58.48,58.48,0,0,0-.49,7.64c5.18.36,9,1.18,11.64,2.47a9.45,9.45,0,0,1,5.09,5.82,34.38,34.38,0,0,1,1.22,10.11v41.71q0,13-3.28,17.61t-13,4.93a33.44,33.44,0,0,0-1.33,7.12q-.37,4-.37,8.68,3.64-.26,9.22-.39l12.37-.26q6.78-.12,13.34-.13t13.09.13l12.13.26q5.58.14,9.21.39c0-2.76-.12-5.56-.36-8.42A35.16,35.16,0,0,0,799.4,170.69Z"/><path class="cls-1" d="M454.77,83.14c5.75.18,10.55-4.65,10.72-10.79s-4.36-11.28-10.11-11.46-10.55,4.66-10.72,10.8S449,83,454.77,83.14Z"/><ellipse class="cls-1" cx="515.83" cy="73.93" rx="10.42" ry="11.13"/><path class="cls-1" d="M501,125.9c-5-16.44-13.55-26.09-13.55-26.09s14.95-14.32,16.47-34c.65-8.35,0-28.6-.38-39.64l8.3-.14c8.88-.15,15.44,2.42,19.63,7.71S538.4,47.1,539.7,58a45.13,45.13,0,0,0,10.53-.83,46.73,46.73,0,0,0,8.58-2.6q-2.13-12.13-3.26-23.78T554.26,9q-8.24.4-18.55.7T513,10.35q-12.36.33-27.4.58l-28.5.48q-12.24.19-22.19.11t-18.44-.21a212.26,212.26,0,0,1-1,22.42A199.7,199.7,0,0,1,412.09,57a21.79,21.79,0,0,0,8.77,2.44,93.4,93.4,0,0,0,9.95.36,88.41,88.41,0,0,1,5.08-17.57A24.86,24.86,0,0,1,444.82,31q5.88-4,16.07-4.15l5.81-.1c-.12,7.52-.23,19.31.06,28.87a30.73,30.73,0,0,1-4.26-2.61,31.35,31.35,0,0,1-5.13-4.67,29.65,29.65,0,0,1-3.89-5.47A33.51,33.51,0,0,1,450.89,37l-10.75,7.47c1,1.06,2,2.16,3.07,3.12a37.15,37.15,0,0,0,3.3,2.74,36.21,36.21,0,0,0,7.11,4.17,34.63,34.63,0,0,0,7.47,2.37,32.06,32.06,0,0,0,5.73.61c.15,4.05.38,7.59.73,10.08A52.4,52.4,0,0,0,485.49,100s-8.4,9.63-13.66,25.93c-3.13-.05-15.94-1.18-26.17-15.67a70.86,70.86,0,0,0-4,30.17l.09,1.15s11-17,27.53-9.44l.84-.13a85.24,85.24,0,0,0-2.12,12.8c-.59,6.71-.61,12-1.82,15.67a11.74,11.74,0,0,1-6.79,7.65q-5,2.07-13.94,2.59a39.31,39.31,0,0,0-1.58,7.25,61.88,61.88,0,0,0-.61,8.55q5.08-.26,12.37-.39l15.76-.26q8.49-.12,16.26-.13,11.88,0,22.31.13t17.7.65a78.65,78.65,0,0,0-.49-8.8,29.66,29.66,0,0,0-1.45-7q-9-.52-13.58-2.59a11.14,11.14,0,0,1-6.19-7.65c-1.05-3.71-1.18-8.94-1.57-15.67a81.35,81.35,0,0,0-1.8-12.81l.93.14C520,124.54,531,141.55,531,141.55l.1-1.15a70.86,70.86,0,0,0-4-30.17C516.91,124.67,504.17,125.84,501,125.9Z"/><path class="cls-1" d="M522.55,45.08a29.56,29.56,0,0,1-4.18,5.22A30.8,30.8,0,0,1,513,54.64a28,28,0,0,1-6.37,3.08l0,.87a29.31,29.31,0,0,0,7.54-.09,34.17,34.17,0,0,0,7.59-1.9,35.58,35.58,0,0,0,7.33-3.71,37,37,0,0,0,3.44-2.53c1.13-.89,2.14-1.92,3.23-2.92l-10.31-8.13A33.26,33.26,0,0,1,522.55,45.08Z"/></g></g></svg>